<mxfile host="app.diagrams.net" modified="2023-08-25T09:58:58.134Z" agent="Mozilla/5.0 (Macintosh; Intel Mac OS X 10.15; rv:109.0) Gecko/20100101 Firefox/116.0" etag="0mNzdJC3KpTBVF9UyuAs" version="21.6.9" type="github">
  <diagram name="Page-1" id="hLpCQ97gKun2HHVvknZl">
    <mxGraphModel dx="4587" dy="2512" grid="1" gridSize="10" guides="1" tooltips="1" connect="1" arrows="1" fold="1" page="1" pageScale="1" pageWidth="827" pageHeight="1169" math="0" shadow="0">
      <root>
        <mxCell id="0" />
        <mxCell id="1" parent="0" />
        <mxCell id="sFmeJr-89NjhY19Eg1W9-1" value="" style="verticalLabelPosition=bottom;verticalAlign=top;html=1;shape=mxgraph.basic.diag_round_rect;dx=6;whiteSpace=wrap;fillColor=#f8cecc;strokeColor=#b85450;" vertex="1" parent="1">
          <mxGeometry x="2088.0112359550562" y="1858.75" width="890" height="174.25" as="geometry" />
        </mxCell>
        <mxCell id="sFmeJr-89NjhY19Eg1W9-2" value="&lt;h2 style=&quot;font-size: 81px;&quot; align=&quot;center&quot;&gt;&lt;font style=&quot;font-size: 81px;&quot;&gt;BERT Architecture&lt;/font&gt;&lt;/h2&gt;" style="rounded=0;whiteSpace=wrap;html=1;fillColor=#dae8fc;strokeColor=#6c8ebf;align=center;" vertex="1" parent="1">
          <mxGeometry x="648.0112359550562" y="1353" width="2330" height="490" as="geometry" />
        </mxCell>
        <mxCell id="sFmeJr-89NjhY19Eg1W9-3" value="" style="rounded=0;whiteSpace=wrap;html=1;fillColor=#dae8fc;flipH=1;strokeColor=#6c8ebf;flipV=0;" vertex="1" parent="1">
          <mxGeometry x="648.0112359550562" y="1862" width="1420" height="170" as="geometry" />
        </mxCell>
        <mxCell id="sFmeJr-89NjhY19Eg1W9-4" value="&lt;font style=&quot;font-size: 20px;&quot; color=&quot;#ffffff&quot;&gt;&#39;P55&#39;&lt;/font&gt;" style="ellipse;whiteSpace=wrap;html=1;fillColor=#9CC7FF;flipH=1;strokeColor=#006EAF;" vertex="1" parent="1">
          <mxGeometry x="1051.0112359550562" y="1892" width="100" height="100" as="geometry" />
        </mxCell>
        <mxCell id="sFmeJr-89NjhY19Eg1W9-5" value="&lt;font style=&quot;font-size: 20px;&quot;&gt;&#39;Z38&#39;&lt;/font&gt;" style="ellipse;whiteSpace=wrap;html=1;fillColor=#9CC7FF;flipH=1;strokeColor=#006EAF;fontColor=#ffffff;" vertex="1" parent="1">
          <mxGeometry x="798.0112359550562" y="1893" width="100" height="100" as="geometry" />
        </mxCell>
        <mxCell id="sFmeJr-89NjhY19Eg1W9-6" value="&lt;font style=&quot;font-size: 20px;&quot; color=&quot;#ffffff&quot;&gt;&#39;P70&#39;&lt;/font&gt;" style="ellipse;whiteSpace=wrap;html=1;fillColor=#9CC7FF;flipH=1;strokeColor=#006EAF;" vertex="1" parent="1">
          <mxGeometry x="924.0112359550562" y="1894" width="100" height="100" as="geometry" />
        </mxCell>
        <mxCell id="sFmeJr-89NjhY19Eg1W9-7" value="&lt;font style=&quot;font-size: 20px;&quot; color=&quot;#ffffff&quot;&gt;&#39;P00&#39;&lt;/font&gt;" style="ellipse;whiteSpace=wrap;html=1;fillColor=#9CC7FF;flipH=1;strokeColor=#006EAF;" vertex="1" parent="1">
          <mxGeometry x="1178.0112359550562" y="1894" width="100" height="100" as="geometry" />
        </mxCell>
        <mxCell id="sFmeJr-89NjhY19Eg1W9-8" value="" style="rhombus;whiteSpace=wrap;html=1;flipH=1;direction=north;fillColor=#fff2cc;strokeColor=#d6b656;" vertex="1" parent="1">
          <mxGeometry x="1304.0112359550562" y="1895" width="100" height="100" as="geometry" />
        </mxCell>
        <mxCell id="sFmeJr-89NjhY19Eg1W9-9" value="&lt;font style=&quot;font-size: 20px;&quot; color=&quot;#ffffff&quot;&gt;&#39;E86&#39;&lt;/font&gt;" style="ellipse;whiteSpace=wrap;html=1;fillColor=#9CC7FF;flipH=1;strokeColor=#006EAF;" vertex="1" parent="1">
          <mxGeometry x="1431.0112359550562" y="1896" width="100" height="100" as="geometry" />
        </mxCell>
        <mxCell id="sFmeJr-89NjhY19Eg1W9-10" value="&lt;font style=&quot;font-size: 20px;&quot; color=&quot;#ffffff&quot;&gt;&#39;A02&#39;&lt;/font&gt;" style="ellipse;whiteSpace=wrap;html=1;fillColor=#9CC7FF;flipH=1;strokeColor=#006EAF;" vertex="1" parent="1">
          <mxGeometry x="1558.0112359550562" y="1897" width="100" height="100" as="geometry" />
        </mxCell>
        <mxCell id="sFmeJr-89NjhY19Eg1W9-11" value="&lt;font style=&quot;font-size: 20px;&quot; color=&quot;#ffffff&quot;&gt;&#39;N39&#39;&lt;/font&gt;" style="ellipse;whiteSpace=wrap;html=1;fillColor=#9CC7FF;flipH=1;strokeColor=#006EAF;" vertex="1" parent="1">
          <mxGeometry x="1685.0112359550562" y="1897" width="100" height="100" as="geometry" />
        </mxCell>
        <mxCell id="sFmeJr-89NjhY19Eg1W9-12" value="" style="rhombus;whiteSpace=wrap;html=1;flipH=1;fillColor=#fff2cc;strokeColor=#d6b656;" vertex="1" parent="1">
          <mxGeometry x="1811.0112359550562" y="1898" width="100" height="100" as="geometry" />
        </mxCell>
        <mxCell id="sFmeJr-89NjhY19Eg1W9-13" value="&lt;font style=&quot;font-size: 20px;&quot; color=&quot;#ffffff&quot;&gt;&#39;J21&#39;&lt;/font&gt;" style="ellipse;whiteSpace=wrap;html=1;fillColor=#9CC7FF;flipH=1;strokeColor=#006EAF;" vertex="1" parent="1">
          <mxGeometry x="1938.0112359550562" y="1901" width="100" height="100" as="geometry" />
        </mxCell>
        <mxCell id="sFmeJr-89NjhY19Eg1W9-14" value="" style="whiteSpace=wrap;html=1;aspect=fixed;direction=east;flipH=1;flipV=1;strokeColor=#d6b656;fillColor=#fff2cc;" vertex="1" parent="1">
          <mxGeometry x="678.0112359550562" y="1903" width="86" height="86" as="geometry" />
        </mxCell>
        <mxCell id="sFmeJr-89NjhY19Eg1W9-15" value="" style="shape=hexagon;perimeter=hexagonPerimeter2;whiteSpace=wrap;html=1;fixedSize=1;" vertex="1" parent="1">
          <mxGeometry x="788.0112359550562" y="1733" width="110" height="70" as="geometry" />
        </mxCell>
        <mxCell id="sFmeJr-89NjhY19Eg1W9-16" value="" style="shape=hexagon;perimeter=hexagonPerimeter2;whiteSpace=wrap;html=1;fixedSize=1;" vertex="1" parent="1">
          <mxGeometry x="1550.0112359550562" y="1733" width="110" height="70" as="geometry" />
        </mxCell>
        <mxCell id="sFmeJr-89NjhY19Eg1W9-17" value="" style="shape=hexagon;perimeter=hexagonPerimeter2;whiteSpace=wrap;html=1;fixedSize=1;" vertex="1" parent="1">
          <mxGeometry x="1418.0112359550562" y="1733" width="110" height="70" as="geometry" />
        </mxCell>
        <mxCell id="sFmeJr-89NjhY19Eg1W9-18" value="" style="shape=hexagon;perimeter=hexagonPerimeter2;whiteSpace=wrap;html=1;fixedSize=1;" vertex="1" parent="1">
          <mxGeometry x="1179.0112359550562" y="1733" width="110" height="70" as="geometry" />
        </mxCell>
        <mxCell id="sFmeJr-89NjhY19Eg1W9-19" value="" style="shape=hexagon;perimeter=hexagonPerimeter2;whiteSpace=wrap;html=1;fixedSize=1;" vertex="1" parent="1">
          <mxGeometry x="1047.0112359550562" y="1733" width="110" height="70" as="geometry" />
        </mxCell>
        <mxCell id="sFmeJr-89NjhY19Eg1W9-20" value="" style="shape=hexagon;perimeter=hexagonPerimeter2;whiteSpace=wrap;html=1;fixedSize=1;" vertex="1" parent="1">
          <mxGeometry x="915.0112359550562" y="1733" width="110" height="70" as="geometry" />
        </mxCell>
        <mxCell id="sFmeJr-89NjhY19Eg1W9-21" value="" style="shape=hexagon;perimeter=hexagonPerimeter2;whiteSpace=wrap;html=1;fixedSize=1;" vertex="1" parent="1">
          <mxGeometry x="1931.0112359550562" y="1733" width="110" height="70" as="geometry" />
        </mxCell>
        <mxCell id="sFmeJr-89NjhY19Eg1W9-22" value="" style="shape=hexagon;perimeter=hexagonPerimeter2;whiteSpace=wrap;html=1;fixedSize=1;" vertex="1" parent="1">
          <mxGeometry x="1687.0112359550562" y="1733" width="110" height="70" as="geometry" />
        </mxCell>
        <mxCell id="sFmeJr-89NjhY19Eg1W9-23" value="&lt;font style=&quot;font-size: 18px;&quot;&gt;E&lt;sub&gt;1&lt;/sub&gt;&lt;/font&gt;" style="text;html=1;strokeColor=none;fillColor=none;align=center;verticalAlign=middle;whiteSpace=wrap;rounded=0;" vertex="1" parent="1">
          <mxGeometry x="813.0112359550562" y="1753" width="60" height="30" as="geometry" />
        </mxCell>
        <mxCell id="sFmeJr-89NjhY19Eg1W9-24" value="&lt;font style=&quot;font-size: 18px;&quot;&gt;E&lt;sub&gt;1&lt;/sub&gt;&lt;sup&gt;&#39;&lt;/sup&gt;&lt;/font&gt;" style="text;html=1;strokeColor=none;fillColor=none;align=center;verticalAlign=middle;whiteSpace=wrap;rounded=0;" vertex="1" parent="1">
          <mxGeometry x="1443.0112359550562" y="1753" width="60" height="30" as="geometry" />
        </mxCell>
        <mxCell id="sFmeJr-89NjhY19Eg1W9-25" value="&lt;font style=&quot;font-size: 18px;&quot;&gt;E&lt;sub&gt;4&lt;/sub&gt;&lt;/font&gt;" style="text;html=1;strokeColor=none;fillColor=none;align=center;verticalAlign=middle;whiteSpace=wrap;rounded=0;" vertex="1" parent="1">
          <mxGeometry x="1204.0112359550562" y="1753" width="60" height="30" as="geometry" />
        </mxCell>
        <mxCell id="sFmeJr-89NjhY19Eg1W9-26" value="&lt;font style=&quot;font-size: 18px;&quot;&gt;E&lt;sub&gt;3&lt;/sub&gt;&lt;/font&gt;" style="text;html=1;strokeColor=none;fillColor=none;align=center;verticalAlign=middle;whiteSpace=wrap;rounded=0;" vertex="1" parent="1">
          <mxGeometry x="1072.0112359550562" y="1753" width="60" height="30" as="geometry" />
        </mxCell>
        <mxCell id="sFmeJr-89NjhY19Eg1W9-27" value="&lt;font style=&quot;font-size: 18px;&quot;&gt;E&lt;sub&gt;2&lt;/sub&gt;&lt;/font&gt;" style="text;html=1;strokeColor=none;fillColor=none;align=center;verticalAlign=middle;whiteSpace=wrap;rounded=0;" vertex="1" parent="1">
          <mxGeometry x="940.0112359550562" y="1753" width="60" height="30" as="geometry" />
        </mxCell>
        <mxCell id="sFmeJr-89NjhY19Eg1W9-28" value="&lt;font style=&quot;font-size: 18px;&quot;&gt;E&lt;sup&gt;&#39;&#39;&lt;/sup&gt;&lt;sub&gt;1&lt;/sub&gt;&lt;/font&gt;" style="text;html=1;strokeColor=none;fillColor=none;align=center;verticalAlign=middle;whiteSpace=wrap;rounded=0;" vertex="1" parent="1">
          <mxGeometry x="1961.0112359550562" y="1753" width="60" height="30" as="geometry" />
        </mxCell>
        <mxCell id="sFmeJr-89NjhY19Eg1W9-29" value="&lt;font style=&quot;font-size: 18px;&quot;&gt;E&lt;sub&gt;3&lt;/sub&gt;&lt;sup&gt;&#39;&lt;/sup&gt;&lt;/font&gt;" style="text;html=1;strokeColor=none;fillColor=none;align=center;verticalAlign=middle;whiteSpace=wrap;rounded=0;" vertex="1" parent="1">
          <mxGeometry x="1712.0112359550562" y="1753" width="60" height="30" as="geometry" />
        </mxCell>
        <mxCell id="sFmeJr-89NjhY19Eg1W9-30" value="&lt;font style=&quot;font-size: 18px;&quot;&gt;E&lt;sub&gt;2&lt;/sub&gt;&lt;sup&gt;&#39;&lt;/sup&gt;&lt;/font&gt;" style="text;html=1;strokeColor=none;fillColor=none;align=center;verticalAlign=middle;whiteSpace=wrap;rounded=0;" vertex="1" parent="1">
          <mxGeometry x="1575.0112359550562" y="1753" width="60" height="30" as="geometry" />
        </mxCell>
        <mxCell id="sFmeJr-89NjhY19Eg1W9-31" value="" style="shape=singleArrow;direction=north;whiteSpace=wrap;html=1;fillColor=#f5f5f5;fontColor=#333333;strokeColor=#666666;" vertex="1" parent="1">
          <mxGeometry x="836.7612359550562" y="1813" width="22.5" height="72.5" as="geometry" />
        </mxCell>
        <mxCell id="sFmeJr-89NjhY19Eg1W9-32" value="" style="shape=singleArrow;direction=north;whiteSpace=wrap;html=1;fillColor=#f5f5f5;fontColor=#333333;strokeColor=#666666;" vertex="1" parent="1">
          <mxGeometry x="1471.7612359550562" y="1813" width="22.5" height="72.5" as="geometry" />
        </mxCell>
        <mxCell id="sFmeJr-89NjhY19Eg1W9-33" value="" style="shape=singleArrow;direction=north;whiteSpace=wrap;html=1;fillColor=#f5f5f5;fontColor=#333333;strokeColor=#666666;" vertex="1" parent="1">
          <mxGeometry x="1222.7612359550562" y="1813" width="22.5" height="72.5" as="geometry" />
        </mxCell>
        <mxCell id="sFmeJr-89NjhY19Eg1W9-34" value="" style="shape=singleArrow;direction=north;whiteSpace=wrap;html=1;fillColor=#f5f5f5;fontColor=#333333;strokeColor=#666666;" vertex="1" parent="1">
          <mxGeometry x="1090.7612359550562" y="1813" width="22.5" height="72.5" as="geometry" />
        </mxCell>
        <mxCell id="sFmeJr-89NjhY19Eg1W9-35" value="" style="shape=singleArrow;direction=north;whiteSpace=wrap;html=1;fillColor=#f5f5f5;fontColor=#333333;strokeColor=#666666;" vertex="1" parent="1">
          <mxGeometry x="963.7612359550562" y="1813" width="22.5" height="72.5" as="geometry" />
        </mxCell>
        <mxCell id="sFmeJr-89NjhY19Eg1W9-36" value="" style="shape=singleArrow;direction=north;whiteSpace=wrap;html=1;fillColor=#f5f5f5;fontColor=#333333;strokeColor=#666666;" vertex="1" parent="1">
          <mxGeometry x="1979.7612359550562" y="1813" width="22.5" height="72.5" as="geometry" />
        </mxCell>
        <mxCell id="sFmeJr-89NjhY19Eg1W9-37" value="" style="shape=singleArrow;direction=north;whiteSpace=wrap;html=1;fillColor=#f5f5f5;fontColor=#333333;strokeColor=#666666;" vertex="1" parent="1">
          <mxGeometry x="1725.7612359550562" y="1813" width="22.5" height="72.5" as="geometry" />
        </mxCell>
        <mxCell id="sFmeJr-89NjhY19Eg1W9-38" value="" style="shape=singleArrow;direction=north;whiteSpace=wrap;html=1;fillColor=#f5f5f5;fontColor=#333333;strokeColor=#666666;" vertex="1" parent="1">
          <mxGeometry x="1593.7612359550562" y="1813" width="22.5" height="72.5" as="geometry" />
        </mxCell>
        <mxCell id="sFmeJr-89NjhY19Eg1W9-39" value="" style="endArrow=classic;html=1;rounded=0;strokeWidth=2;dashed=1;" edge="1" parent="1">
          <mxGeometry width="50" height="50" relative="1" as="geometry">
            <mxPoint x="601.0112359550562" y="1853" as="sourcePoint" />
            <mxPoint x="831.0112359550562" y="1853" as="targetPoint" />
          </mxGeometry>
        </mxCell>
        <mxCell id="sFmeJr-89NjhY19Eg1W9-40" value="&lt;div style=&quot;font-size: 29px;&quot;&gt;&lt;b&gt;&lt;font style=&quot;font-size: 29px;&quot;&gt;Linear transformation&lt;/font&gt;&lt;/b&gt;&lt;/div&gt;&lt;div style=&quot;font-size: 29px;&quot;&gt;&lt;font style=&quot;font-size: 29px;&quot;&gt;&lt;b&gt;nn.linear (288,4)&lt;br&gt;&lt;/b&gt; &lt;/font&gt;&lt;/div&gt;" style="rounded=1;whiteSpace=wrap;html=1;fillColor=#DAE8FC;" vertex="1" parent="1">
          <mxGeometry x="1705.0112359550562" y="1093" width="435.25" height="172" as="geometry" />
        </mxCell>
        <mxCell id="sFmeJr-89NjhY19Eg1W9-41" value="&lt;p style=&quot;line-height: 0%;&quot;&gt;&lt;br&gt;&lt;/p&gt;" style="rounded=0;whiteSpace=wrap;html=1;fillColor=#DAE8FC;" vertex="1" parent="1">
          <mxGeometry x="1238.0112359550562" y="40" width="1370" height="560" as="geometry" />
        </mxCell>
        <mxCell id="sFmeJr-89NjhY19Eg1W9-42" value="&lt;font style=&quot;font-size: 23px;&quot;&gt;&lt;b&gt;&lt;font style=&quot;font-size: 23px;&quot;&gt;(0.016, &lt;font style=&quot;font-size: 23px;&quot; color=&quot;#ff0000&quot;&gt;0.055&lt;/font&gt;, &lt;/font&gt;&lt;font style=&quot;font-size: 23px;&quot;&gt;&lt;font style=&quot;font-size: 23px;&quot; color=&quot;#ff0000&quot;&gt;0.179&lt;/font&gt;&lt;/font&gt;&lt;font style=&quot;font-size: 23px;&quot;&gt;, ..., &lt;font color=&quot;#ff0000&quot;&gt;0.122&lt;/font&gt;, ...) ∈ ℝ&lt;sup&gt;4&lt;/sup&gt;&lt;/font&gt;&lt;/b&gt;&lt;/font&gt;" style="rounded=1;whiteSpace=wrap;html=1;" vertex="1" parent="1">
          <mxGeometry x="1640.0112359550562" y="189" width="590" height="80" as="geometry" />
        </mxCell>
        <mxCell id="sFmeJr-89NjhY19Eg1W9-43" value="&lt;p style=&quot;line-height: 0%; font-size: 38px;&quot;&gt;&lt;font style=&quot;font-size: 38px;&quot;&gt;&lt;b&gt;&lt;font style=&quot;font-size: 38px;&quot;&gt;Next Visit Prediction&lt;/font&gt;&lt;/b&gt;&lt;/font&gt;&lt;/p&gt;&lt;p style=&quot;line-height: 0%; font-size: 38px;&quot;&gt;&lt;font style=&quot;font-size: 38px;&quot;&gt;&lt;b&gt;&lt;font style=&quot;font-size: 38px;&quot;&gt;(top 10 codes) &lt;/font&gt;&lt;/b&gt;&lt;font style=&quot;font-size: 38px;&quot;&gt;&lt;b&gt;&lt;font style=&quot;font-size: 38px;&quot;&gt;&lt;br&gt;&lt;/font&gt;&lt;/b&gt;&lt;/font&gt;&lt;/font&gt;&lt;/p&gt;&lt;p style=&quot;line-height: 0%;&quot;&gt;&lt;b&gt;&lt;font style=&quot;font-size: 30px;&quot;&gt;&lt;br&gt;&lt;/font&gt;&lt;/b&gt;&lt;/p&gt;" style="text;html=1;strokeColor=none;fillColor=none;align=center;verticalAlign=middle;whiteSpace=wrap;rounded=0;" vertex="1" parent="1">
          <mxGeometry x="1724.0112359550562" y="40" width="396" height="147" as="geometry" />
        </mxCell>
        <mxCell id="sFmeJr-89NjhY19Eg1W9-44" value="&lt;font style=&quot;font-size: 20px;&quot; color=&quot;#ffffff&quot;&gt;&#39;J21&#39;&lt;/font&gt;" style="ellipse;whiteSpace=wrap;html=1;fillColor=#9CC7FF;flipH=1;strokeColor=#006EAF;" vertex="1" parent="1">
          <mxGeometry x="2615.5112359550562" y="1898" width="100" height="100" as="geometry" />
        </mxCell>
        <mxCell id="sFmeJr-89NjhY19Eg1W9-45" value="&lt;font style=&quot;font-size: 20px;&quot; color=&quot;#ffffff&quot;&gt;&#39;Z20&#39;&lt;/font&gt;" style="ellipse;whiteSpace=wrap;html=1;fillColor=#9CC7FF;flipH=1;strokeColor=#006EAF;" vertex="1" parent="1">
          <mxGeometry x="2742.5112359550562" y="1899" width="100" height="100" as="geometry" />
        </mxCell>
        <mxCell id="sFmeJr-89NjhY19Eg1W9-46" value="&lt;font style=&quot;font-size: 20px;&quot; color=&quot;#ffffff&quot;&gt;&#39;Z20&#39;&lt;/font&gt;" style="ellipse;whiteSpace=wrap;html=1;fillColor=#9CC7FF;flipH=1;strokeColor=#006EAF;" vertex="1" parent="1">
          <mxGeometry x="2869.5112359550562" y="1897" width="100" height="100" as="geometry" />
        </mxCell>
        <mxCell id="sFmeJr-89NjhY19Eg1W9-47" value="" style="rhombus;whiteSpace=wrap;html=1;flipH=1;fillColor=#fff2cc;strokeColor=#d6b656;" vertex="1" parent="1">
          <mxGeometry x="2099.5112359550562" y="1900" width="100" height="100" as="geometry" />
        </mxCell>
        <mxCell id="sFmeJr-89NjhY19Eg1W9-48" value="&lt;font style=&quot;font-size: 20px;&quot; color=&quot;#ffffff&quot;&gt;&#39;J21&#39;&lt;/font&gt;" style="ellipse;whiteSpace=wrap;html=1;fillColor=#9CC7FF;flipH=1;strokeColor=#006EAF;" vertex="1" parent="1">
          <mxGeometry x="2225.5112359550562" y="1899" width="100" height="100" as="geometry" />
        </mxCell>
        <mxCell id="sFmeJr-89NjhY19Eg1W9-49" value="&lt;font style=&quot;font-size: 20px;&quot; color=&quot;#ffffff&quot;&gt;&#39;Z20&#39;&lt;/font&gt;" style="ellipse;whiteSpace=wrap;html=1;fillColor=#9CC7FF;flipH=1;strokeColor=#006EAF;" vertex="1" parent="1">
          <mxGeometry x="2352.5112359550562" y="1900" width="100" height="100" as="geometry" />
        </mxCell>
        <mxCell id="sFmeJr-89NjhY19Eg1W9-50" value="" style="rhombus;whiteSpace=wrap;html=1;flipH=1;fillColor=#fff2cc;strokeColor=#d6b656;" vertex="1" parent="1">
          <mxGeometry x="2482.5112359550562" y="1902" width="100" height="100" as="geometry" />
        </mxCell>
        <mxCell id="sFmeJr-89NjhY19Eg1W9-52" value="&lt;font style=&quot;font-size: 25px;&quot;&gt;&lt;b style=&quot;font-size: 22px;&quot;&gt;&lt;font style=&quot;font-size: 22px;&quot;&gt;Minimum of 1 visit for each patient in the dataset&lt;br&gt;&lt;/font&gt;&lt;/b&gt;&lt;/font&gt;" style="text;html=1;strokeColor=none;fillColor=none;align=center;verticalAlign=middle;whiteSpace=wrap;rounded=0;" vertex="1" parent="1">
          <mxGeometry x="695.0112359550562" y="2050" width="663" height="30" as="geometry" />
        </mxCell>
        <mxCell id="sFmeJr-89NjhY19Eg1W9-53" value="&lt;b style=&quot;font-size: 26px;&quot;&gt;&lt;font style=&quot;font-size: 26px;&quot;&gt;We randomly choose a visit (≥1) from which we want to predict if the patient is going to be hospitalized from the emergency department in a certain time interval &lt;br&gt;&lt;/font&gt;&lt;/b&gt;" style="text;html=1;strokeColor=none;fillColor=none;align=center;verticalAlign=middle;whiteSpace=wrap;rounded=0;" vertex="1" parent="1">
          <mxGeometry x="1753.0012359550562" y="2230" width="628.5" height="30" as="geometry" />
        </mxCell>
        <mxCell id="sFmeJr-89NjhY19Eg1W9-54" value="&lt;font style=&quot;font-size: 20px;&quot;&gt;&#39;R50&#39;&lt;/font&gt;" style="ellipse;whiteSpace=wrap;html=1;fillColor=#d5e8d4;flipH=1;strokeColor=#82b366;fontColor=#000000;" vertex="1" parent="1">
          <mxGeometry x="1558.0112359550562" y="410" width="100" height="100" as="geometry" />
        </mxCell>
        <mxCell id="sFmeJr-89NjhY19Eg1W9-55" value="&lt;font style=&quot;font-size: 20px;&quot;&gt;&#39;J21&#39;&lt;/font&gt;" style="ellipse;whiteSpace=wrap;html=1;fillColor=#d5e8d4;flipH=1;strokeColor=#82b366;fontColor=#000000;" vertex="1" parent="1">
          <mxGeometry x="1305.0112359550562" y="411" width="100" height="100" as="geometry" />
        </mxCell>
        <mxCell id="sFmeJr-89NjhY19Eg1W9-56" value="&lt;font style=&quot;font-size: 20px;&quot;&gt;&#39;Z29&#39;&lt;/font&gt;" style="ellipse;whiteSpace=wrap;html=1;fillColor=#d5e8d4;flipH=1;strokeColor=#82b366;fontColor=#000000;" vertex="1" parent="1">
          <mxGeometry x="1431.0112359550562" y="412" width="100" height="100" as="geometry" />
        </mxCell>
        <mxCell id="sFmeJr-89NjhY19Eg1W9-57" value="&lt;font style=&quot;font-size: 20px;&quot;&gt;&#39;J96&#39;&lt;/font&gt;" style="ellipse;whiteSpace=wrap;html=1;fillColor=#d5e8d4;flipH=1;strokeColor=#82b366;fontColor=#000000;" vertex="1" parent="1">
          <mxGeometry x="1685.0112359550562" y="412" width="100" height="100" as="geometry" />
        </mxCell>
        <mxCell id="sFmeJr-89NjhY19Eg1W9-58" value="&lt;font style=&quot;font-size: 20px;&quot;&gt;&#39;J45&#39;&lt;/font&gt;" style="ellipse;whiteSpace=wrap;html=1;fillColor=#d5e8d4;flipH=1;strokeColor=#82b366;fontColor=#000000;" vertex="1" parent="1">
          <mxGeometry x="2064.5112359550562" y="412" width="100" height="100" as="geometry" />
        </mxCell>
        <mxCell id="sFmeJr-89NjhY19Eg1W9-59" value="&lt;font style=&quot;font-size: 20px;&quot;&gt;&#39;R63&#39;&lt;/font&gt;" style="ellipse;whiteSpace=wrap;html=1;fillColor=#d5e8d4;flipH=1;strokeColor=#82b366;fontColor=#000000;" vertex="1" parent="1">
          <mxGeometry x="1811.5112359550562" y="413" width="100" height="100" as="geometry" />
        </mxCell>
        <mxCell id="sFmeJr-89NjhY19Eg1W9-60" value="&lt;font style=&quot;font-size: 20px;&quot;&gt;&#39;J00&#39;&lt;/font&gt;" style="ellipse;whiteSpace=wrap;html=1;fillColor=#d5e8d4;flipH=1;strokeColor=#82b366;fontColor=#000000;" vertex="1" parent="1">
          <mxGeometry x="1937.5112359550562" y="414" width="100" height="100" as="geometry" />
        </mxCell>
        <mxCell id="sFmeJr-89NjhY19Eg1W9-61" value="&lt;font style=&quot;font-size: 20px;&quot;&gt;&#39;A09&#39;&lt;/font&gt;" style="ellipse;whiteSpace=wrap;html=1;fillColor=#d5e8d4;flipH=1;strokeColor=#82b366;fontColor=#000000;" vertex="1" parent="1">
          <mxGeometry x="2191.5112359550562" y="414" width="100" height="100" as="geometry" />
        </mxCell>
        <mxCell id="sFmeJr-89NjhY19Eg1W9-62" value="&lt;font style=&quot;font-size: 20px;&quot;&gt;&#39;B97&#39;&lt;/font&gt;" style="ellipse;whiteSpace=wrap;html=1;fillColor=#d5e8d4;flipH=1;strokeColor=#82b366;fontColor=#000000;" vertex="1" parent="1">
          <mxGeometry x="2315.0112359550562" y="414" width="100" height="100" as="geometry" />
        </mxCell>
        <mxCell id="sFmeJr-89NjhY19Eg1W9-63" value="&lt;font style=&quot;font-size: 20px;&quot;&gt;&#39;H66&#39;&lt;/font&gt;" style="ellipse;whiteSpace=wrap;html=1;fillColor=#d5e8d4;flipH=1;strokeColor=#82b366;fontColor=#000000;" vertex="1" parent="1">
          <mxGeometry x="2441.0112359550562" y="415" width="100" height="100" as="geometry" />
        </mxCell>
        <mxCell id="sFmeJr-89NjhY19Eg1W9-64" value="" style="endArrow=classic;html=1;rounded=0;entryX=0.5;entryY=0;entryDx=0;entryDy=0;" edge="1" parent="1" source="sFmeJr-89NjhY19Eg1W9-42" target="sFmeJr-89NjhY19Eg1W9-59">
          <mxGeometry width="50" height="50" relative="1" as="geometry">
            <mxPoint x="1828.0112359550562" y="380" as="sourcePoint" />
            <mxPoint x="1878.0112359550562" y="330" as="targetPoint" />
          </mxGeometry>
        </mxCell>
        <mxCell id="sFmeJr-89NjhY19Eg1W9-65" value="" style="endArrow=classic;html=1;rounded=0;entryX=1;entryY=0;entryDx=0;entryDy=0;" edge="1" parent="1" target="sFmeJr-89NjhY19Eg1W9-54">
          <mxGeometry width="50" height="50" relative="1" as="geometry">
            <mxPoint x="1918.0112359550562" y="270" as="sourcePoint" />
            <mxPoint x="1616.2612359550562" y="410" as="targetPoint" />
          </mxGeometry>
        </mxCell>
        <mxCell id="sFmeJr-89NjhY19Eg1W9-66" value="" style="endArrow=classic;html=1;rounded=0;entryX=0.5;entryY=0;entryDx=0;entryDy=0;exitX=0.475;exitY=1.013;exitDx=0;exitDy=0;exitPerimeter=0;" edge="1" parent="1" source="sFmeJr-89NjhY19Eg1W9-42">
          <mxGeometry width="50" height="50" relative="1" as="geometry">
            <mxPoint x="1797.0112359550562" y="271" as="sourcePoint" />
            <mxPoint x="1748.0112359550562" y="415" as="targetPoint" />
          </mxGeometry>
        </mxCell>
        <mxCell id="sFmeJr-89NjhY19Eg1W9-67" value="" style="endArrow=classic;html=1;rounded=0;entryX=0.5;entryY=0;entryDx=0;entryDy=0;" edge="1" parent="1">
          <mxGeometry width="50" height="50" relative="1" as="geometry">
            <mxPoint x="1918.0112359550562" y="270" as="sourcePoint" />
            <mxPoint x="2108.0112359550562" y="413" as="targetPoint" />
          </mxGeometry>
        </mxCell>
        <mxCell id="sFmeJr-89NjhY19Eg1W9-68" value="" style="endArrow=classic;html=1;rounded=0;entryX=0.5;entryY=0;entryDx=0;entryDy=0;" edge="1" parent="1" target="sFmeJr-89NjhY19Eg1W9-60">
          <mxGeometry width="50" height="50" relative="1" as="geometry">
            <mxPoint x="1918.0112359550562" y="270" as="sourcePoint" />
            <mxPoint x="1901.0112359550562" y="453" as="targetPoint" />
          </mxGeometry>
        </mxCell>
        <mxCell id="sFmeJr-89NjhY19Eg1W9-69" value="" style="endArrow=classic;html=1;rounded=0;entryX=1;entryY=0;entryDx=0;entryDy=0;exitX=0.473;exitY=0.983;exitDx=0;exitDy=0;exitPerimeter=0;" edge="1" parent="1" source="sFmeJr-89NjhY19Eg1W9-42" target="sFmeJr-89NjhY19Eg1W9-56">
          <mxGeometry width="50" height="50" relative="1" as="geometry">
            <mxPoint x="1908.0112359550562" y="270" as="sourcePoint" />
            <mxPoint x="1482.0112359550562" y="414" as="targetPoint" />
          </mxGeometry>
        </mxCell>
        <mxCell id="sFmeJr-89NjhY19Eg1W9-70" value="" style="endArrow=classic;html=1;rounded=0;entryX=1;entryY=0;entryDx=0;entryDy=0;" edge="1" parent="1" source="sFmeJr-89NjhY19Eg1W9-75" target="sFmeJr-89NjhY19Eg1W9-55">
          <mxGeometry width="50" height="50" relative="1" as="geometry">
            <mxPoint x="1908.0112359550562" y="270" as="sourcePoint" />
            <mxPoint x="1358.0112359550562" y="410" as="targetPoint" />
          </mxGeometry>
        </mxCell>
        <mxCell id="sFmeJr-89NjhY19Eg1W9-71" value="" style="endArrow=classic;html=1;rounded=0;entryX=0;entryY=0;entryDx=0;entryDy=0;" edge="1" parent="1" target="sFmeJr-89NjhY19Eg1W9-61">
          <mxGeometry width="50" height="50" relative="1" as="geometry">
            <mxPoint x="1918.0112359550562" y="270" as="sourcePoint" />
            <mxPoint x="2099.5112359550562" y="444" as="targetPoint" />
          </mxGeometry>
        </mxCell>
        <mxCell id="sFmeJr-89NjhY19Eg1W9-72" value="" style="endArrow=classic;html=1;rounded=0;entryX=0;entryY=0;entryDx=0;entryDy=0;" edge="1" parent="1" target="sFmeJr-89NjhY19Eg1W9-62">
          <mxGeometry width="50" height="50" relative="1" as="geometry">
            <mxPoint x="1918.0112359550562" y="270" as="sourcePoint" />
            <mxPoint x="2325.5112359550562" y="428" as="targetPoint" />
          </mxGeometry>
        </mxCell>
        <mxCell id="sFmeJr-89NjhY19Eg1W9-73" value="" style="endArrow=classic;html=1;rounded=0;entryX=0;entryY=0;entryDx=0;entryDy=0;exitX=0.471;exitY=1.011;exitDx=0;exitDy=0;exitPerimeter=0;" edge="1" parent="1" source="sFmeJr-89NjhY19Eg1W9-42" target="sFmeJr-89NjhY19Eg1W9-63">
          <mxGeometry width="50" height="50" relative="1" as="geometry">
            <mxPoint x="1908.0112359550562" y="270" as="sourcePoint" />
            <mxPoint x="2246.0112359550562" y="428" as="targetPoint" />
          </mxGeometry>
        </mxCell>
        <mxCell id="sFmeJr-89NjhY19Eg1W9-74" value="" style="endArrow=classic;html=1;rounded=0;entryX=1;entryY=0;entryDx=0;entryDy=0;exitX=0.475;exitY=0.993;exitDx=0;exitDy=0;exitPerimeter=0;" edge="1" parent="1" source="sFmeJr-89NjhY19Eg1W9-42" target="sFmeJr-89NjhY19Eg1W9-75">
          <mxGeometry width="50" height="50" relative="1" as="geometry">
            <mxPoint x="1920.0112359550562" y="268" as="sourcePoint" />
            <mxPoint x="1390.0112359550562" y="426" as="targetPoint" />
          </mxGeometry>
        </mxCell>
        <mxCell id="sFmeJr-89NjhY19Eg1W9-75" value="" style="ellipse;whiteSpace=wrap;html=1;aspect=fixed;" vertex="1" parent="1">
          <mxGeometry x="1913.0112359550562" y="265" width="10" height="10" as="geometry" />
        </mxCell>
        <mxCell id="sFmeJr-89NjhY19Eg1W9-77" value="&lt;div style=&quot;font-size: 29px;&quot;&gt;&lt;font style=&quot;font-size: 29px;&quot;&gt;&lt;b&gt;Normalization&lt;br&gt;&lt;/b&gt;&lt;/font&gt;&lt;/div&gt;&lt;div style=&quot;font-size: 29px;&quot;&gt;&lt;font style=&quot;font-size: 29px;&quot;&gt;&lt;b&gt;nn.LogSoftmax()&lt;/b&gt;&lt;/font&gt;&lt;b&gt;&lt;font style=&quot;font-size: 29px;&quot;&gt;&lt;/font&gt;&lt;/b&gt;&lt;/div&gt;" style="rounded=1;whiteSpace=wrap;html=1;fillColor=#DAE8FC;" vertex="1" parent="1">
          <mxGeometry x="1705.3912359550563" y="733" width="435.25" height="172" as="geometry" />
        </mxCell>
        <mxCell id="sFmeJr-89NjhY19Eg1W9-78" value="&lt;font style=&quot;font-size: 18px;&quot;&gt;E&lt;sub style=&quot;&quot;&gt;CLS&lt;/sub&gt;&lt;/font&gt;" style="shape=hexagon;perimeter=hexagonPerimeter2;whiteSpace=wrap;html=1;fixedSize=1;" vertex="1" parent="1">
          <mxGeometry x="668.0112359550562" y="1733" width="110" height="70" as="geometry" />
        </mxCell>
        <mxCell id="sFmeJr-89NjhY19Eg1W9-79" value="" style="shape=singleArrow;direction=north;whiteSpace=wrap;html=1;fillColor=#f5f5f5;fontColor=#333333;strokeColor=#666666;" vertex="1" parent="1">
          <mxGeometry x="711.7612359550562" y="1813" width="22.5" height="72.5" as="geometry" />
        </mxCell>
        <mxCell id="sFmeJr-89NjhY19Eg1W9-80" value="" style="shape=flexArrow;endArrow=classic;html=1;rounded=0;fillColor=default;" edge="1" parent="1">
          <mxGeometry width="50" height="50" relative="1" as="geometry">
            <mxPoint x="1921.0112359550562" y="723" as="sourcePoint" />
            <mxPoint x="1921.0112359550562" y="623" as="targetPoint" />
          </mxGeometry>
        </mxCell>
        <mxCell id="sFmeJr-89NjhY19Eg1W9-81" value="" style="shape=flexArrow;endArrow=classic;html=1;rounded=0;fillColor=default;" edge="1" parent="1">
          <mxGeometry width="50" height="50" relative="1" as="geometry">
            <mxPoint x="1921.0112359550562" y="1063" as="sourcePoint" />
            <mxPoint x="1921.0112359550562" y="923" as="targetPoint" />
          </mxGeometry>
        </mxCell>
        <mxCell id="sFmeJr-89NjhY19Eg1W9-82" value="" style="shape=flexArrow;endArrow=classic;html=1;rounded=0;fillColor=default;" edge="1" parent="1">
          <mxGeometry width="50" height="50" relative="1" as="geometry">
            <mxPoint x="1921.0112359550562" y="1344" as="sourcePoint" />
            <mxPoint x="1921.0112359550562" y="1274" as="targetPoint" />
          </mxGeometry>
        </mxCell>
        <mxCell id="sFmeJr-89NjhY19Eg1W9-83" value="&lt;font style=&quot;font-size: 18px;&quot;&gt;E&lt;sub&gt;SEP&lt;/sub&gt;&lt;/font&gt;" style="shape=hexagon;perimeter=hexagonPerimeter2;whiteSpace=wrap;html=1;fixedSize=1;" vertex="1" parent="1">
          <mxGeometry x="1299.0112359550562" y="1733" width="110" height="70" as="geometry" />
        </mxCell>
        <mxCell id="sFmeJr-89NjhY19Eg1W9-84" value="" style="shape=singleArrow;direction=north;whiteSpace=wrap;html=1;fillColor=#f5f5f5;fontColor=#333333;strokeColor=#666666;" vertex="1" parent="1">
          <mxGeometry x="1342.7612359550562" y="1813" width="22.5" height="72.5" as="geometry" />
        </mxCell>
        <mxCell id="sFmeJr-89NjhY19Eg1W9-85" value="&lt;font style=&quot;font-size: 18px;&quot;&gt;E&lt;sub&gt;SEP&lt;/sub&gt;&lt;/font&gt;" style="shape=hexagon;perimeter=hexagonPerimeter2;whiteSpace=wrap;html=1;fixedSize=1;" vertex="1" parent="1">
          <mxGeometry x="1806.0112359550562" y="1733" width="110" height="70" as="geometry" />
        </mxCell>
        <mxCell id="sFmeJr-89NjhY19Eg1W9-86" value="" style="shape=singleArrow;direction=north;whiteSpace=wrap;html=1;fillColor=#f5f5f5;fontColor=#333333;strokeColor=#666666;" vertex="1" parent="1">
          <mxGeometry x="1849.7612359550562" y="1813" width="22.5" height="72.5" as="geometry" />
        </mxCell>
        <mxCell id="sFmeJr-89NjhY19Eg1W9-87" value="" style="group" vertex="1" connectable="0" parent="1">
          <mxGeometry x="188.01123595505624" y="1293" width="426" height="627.5" as="geometry" />
        </mxCell>
        <mxCell id="sFmeJr-89NjhY19Eg1W9-88" value="" style="group;fillColor=#e1d5e7;strokeColor=#9673a6;" vertex="1" connectable="0" parent="sFmeJr-89NjhY19Eg1W9-87">
          <mxGeometry x="319.5" y="492.43273542600895" width="71.79775280898876" height="135.06726457399103" as="geometry" />
        </mxCell>
        <mxCell id="sFmeJr-89NjhY19Eg1W9-89" value="" style="endArrow=none;html=1;rounded=0;fillColor=#e1d5e7;strokeColor=#9673a6;" edge="1" parent="sFmeJr-89NjhY19Eg1W9-88">
          <mxGeometry width="50" height="50" relative="1" as="geometry">
            <mxPoint x="4.2512809751938576e-15" y="66.99336322869952" as="sourcePoint" />
            <mxPoint x="71.79775280898876" y="66.756995515695" as="targetPoint" />
          </mxGeometry>
        </mxCell>
        <mxCell id="sFmeJr-89NjhY19Eg1W9-90" value="" style="group;fillColor=#FFE6CC;strokeColor=#d79b00;" vertex="1" connectable="0" parent="sFmeJr-89NjhY19Eg1W9-87">
          <mxGeometry x="29.91573033707865" y="492.43273542600895" width="71.79775280898876" height="135.06726457399103" as="geometry" />
        </mxCell>
        <mxCell id="sFmeJr-89NjhY19Eg1W9-91" value="" style="endArrow=none;html=1;rounded=0;fillColor=#ffe6cc;strokeColor=#d79b00;" edge="1" parent="sFmeJr-89NjhY19Eg1W9-90">
          <mxGeometry width="50" height="50" relative="1" as="geometry">
            <mxPoint x="4.2512809751938576e-15" y="66.99336322869952" as="sourcePoint" />
            <mxPoint x="71.79775280898876" y="66.756995515695" as="targetPoint" />
          </mxGeometry>
        </mxCell>
        <mxCell id="sFmeJr-89NjhY19Eg1W9-92" value="" style="group;fillColor=#d5e8d4;strokeColor=#82b366;" vertex="1" connectable="0" parent="sFmeJr-89NjhY19Eg1W9-87">
          <mxGeometry x="175.90449438202245" y="492.43273542600895" width="71.79775280898876" height="135.06726457399103" as="geometry" />
        </mxCell>
        <mxCell id="sFmeJr-89NjhY19Eg1W9-93" value="" style="endArrow=none;html=1;rounded=0;fillColor=#d5e8d4;strokeColor=#82b366;" edge="1" parent="sFmeJr-89NjhY19Eg1W9-92">
          <mxGeometry width="50" height="50" relative="1" as="geometry">
            <mxPoint x="4.2512809751938576e-15" y="66.99336322869952" as="sourcePoint" />
            <mxPoint x="71.79775280898876" y="66.756995515695" as="targetPoint" />
          </mxGeometry>
        </mxCell>
        <mxCell id="sFmeJr-89NjhY19Eg1W9-94" value="" style="group" vertex="1" connectable="0" parent="sFmeJr-89NjhY19Eg1W9-87">
          <mxGeometry x="126.84269662921348" y="548.7107623318385" width="47.865168539325836" height="51.775784753363226" as="geometry" />
        </mxCell>
        <mxCell id="sFmeJr-89NjhY19Eg1W9-95" value="" style="endArrow=none;html=1;rounded=0;strokeWidth=2;" edge="1" parent="sFmeJr-89NjhY19Eg1W9-94">
          <mxGeometry width="50" height="50" relative="1" as="geometry">
            <mxPoint x="11.966292134831459" y="22.511210762331835" as="sourcePoint" />
            <mxPoint x="11.966292134831459" as="targetPoint" />
          </mxGeometry>
        </mxCell>
        <mxCell id="sFmeJr-89NjhY19Eg1W9-96" value="" style="endArrow=none;html=1;rounded=0;strokeWidth=2;" edge="1" parent="sFmeJr-89NjhY19Eg1W9-94">
          <mxGeometry width="50" height="50" relative="1" as="geometry">
            <mxPoint x="23.932584269662918" y="11.604529147982001" as="sourcePoint" />
            <mxPoint y="11.604529147982001" as="targetPoint" />
          </mxGeometry>
        </mxCell>
        <mxCell id="sFmeJr-89NjhY19Eg1W9-97" value="" style="group" vertex="1" connectable="0" parent="sFmeJr-89NjhY19Eg1W9-87">
          <mxGeometry x="270.438202247191" y="548.7107623318385" width="23.932584269662918" height="22.511210762331835" as="geometry" />
        </mxCell>
        <mxCell id="sFmeJr-89NjhY19Eg1W9-98" value="" style="endArrow=none;html=1;rounded=0;strokeWidth=2;" edge="1" parent="sFmeJr-89NjhY19Eg1W9-97">
          <mxGeometry width="50" height="50" relative="1" as="geometry">
            <mxPoint x="11.966292134831459" y="22.511210762331835" as="sourcePoint" />
            <mxPoint x="11.966292134831459" as="targetPoint" />
          </mxGeometry>
        </mxCell>
        <mxCell id="sFmeJr-89NjhY19Eg1W9-99" value="" style="endArrow=none;html=1;rounded=0;strokeWidth=2;" edge="1" parent="sFmeJr-89NjhY19Eg1W9-97">
          <mxGeometry width="50" height="50" relative="1" as="geometry">
            <mxPoint x="23.932584269662918" y="11.604529147982001" as="sourcePoint" />
            <mxPoint y="11.604529147982001" as="targetPoint" />
          </mxGeometry>
        </mxCell>
        <mxCell id="sFmeJr-89NjhY19Eg1W9-100" value="&lt;div style=&quot;font-size: 20px;&quot;&gt;&lt;font style=&quot;font-size: 20px;&quot;&gt;&lt;b style=&quot;font-size: 20px;&quot;&gt;Age&lt;/b&gt;&lt;/font&gt;&lt;/div&gt;&lt;div style=&quot;font-size: 20px;&quot;&gt;&lt;font style=&quot;font-size: 20px;&quot;&gt;&lt;b style=&quot;font-size: 20px;&quot;&gt;Embedding&lt;br style=&quot;font-size: 20px;&quot;&gt;&lt;/b&gt;&lt;/font&gt;&lt;/div&gt;" style="text;html=1;align=center;verticalAlign=middle;resizable=0;points=[];autosize=1;strokeColor=none;fillColor=none;fontSize=20;" vertex="1" parent="sFmeJr-89NjhY19Eg1W9-87">
          <mxGeometry x="-7" y="422.7130044843049" width="130" height="60" as="geometry" />
        </mxCell>
        <mxCell id="sFmeJr-89NjhY19Eg1W9-101" value="&lt;div style=&quot;font-size: 20px;&quot;&gt;&lt;font style=&quot;font-size: 20px;&quot;&gt;&lt;b style=&quot;font-size: 20px;&quot;&gt;Positional &lt;br style=&quot;font-size: 20px;&quot;&gt;&lt;/b&gt;&lt;/font&gt;&lt;/div&gt;&lt;div style=&quot;font-size: 20px;&quot;&gt;&lt;font style=&quot;font-size: 20px;&quot;&gt;&lt;b style=&quot;font-size: 20px;&quot;&gt;Embedding&lt;br style=&quot;font-size: 20px;&quot;&gt;&lt;/b&gt;&lt;/font&gt;&lt;/div&gt;" style="text;html=1;align=center;verticalAlign=middle;resizable=0;points=[];autosize=1;strokeColor=none;fillColor=none;fontSize=20;" vertex="1" parent="sFmeJr-89NjhY19Eg1W9-87">
          <mxGeometry x="135.98876404494382" y="422.7130044843049" width="130" height="60" as="geometry" />
        </mxCell>
        <mxCell id="sFmeJr-89NjhY19Eg1W9-102" value="&lt;div style=&quot;font-size: 20px;&quot;&gt;&lt;font style=&quot;font-size: 20px;&quot;&gt;&lt;b style=&quot;font-size: 20px;&quot;&gt;Diagnostic &lt;br style=&quot;font-size: 20px;&quot;&gt;&lt;/b&gt;&lt;/font&gt;&lt;/div&gt;&lt;div style=&quot;font-size: 20px;&quot;&gt;&lt;font style=&quot;font-size: 20px;&quot;&gt;&lt;b style=&quot;font-size: 20px;&quot;&gt;Embedding&lt;br style=&quot;font-size: 20px;&quot;&gt;&lt;/b&gt;&lt;/font&gt;&lt;/div&gt;" style="text;html=1;align=center;verticalAlign=middle;resizable=0;points=[];autosize=1;strokeColor=none;fillColor=none;fontSize=20;" vertex="1" parent="sFmeJr-89NjhY19Eg1W9-87">
          <mxGeometry x="279.5842696629213" y="422.7130044843049" width="130" height="60" as="geometry" />
        </mxCell>
        <mxCell id="sFmeJr-89NjhY19Eg1W9-103" value="" style="group;fontSize=22;" vertex="1" connectable="0" parent="1">
          <mxGeometry x="658.0112359550562" y="1003" width="350" height="340" as="geometry" />
        </mxCell>
        <mxCell id="sFmeJr-89NjhY19Eg1W9-104" value="" style="rhombus;whiteSpace=wrap;html=1;flipH=1;direction=north;fillColor=#fff2cc;strokeColor=#d6b656;flipV=1;fontSize=22;" vertex="1" parent="sFmeJr-89NjhY19Eg1W9-103">
          <mxGeometry x="10" y="166" width="74.84" height="73.02" as="geometry" />
        </mxCell>
        <mxCell id="sFmeJr-89NjhY19Eg1W9-105" value="&lt;div style=&quot;font-size: 22px;&quot;&gt;&lt;b style=&quot;font-size: 22px;&quot;&gt;&lt;font style=&quot;font-size: 22px;&quot;&gt;Separator of visits &lt;br style=&quot;font-size: 22px;&quot;&gt;&lt;/font&gt;&lt;/b&gt;&lt;/div&gt;&lt;div style=&quot;font-size: 22px;&quot;&gt;&lt;b style=&quot;font-size: 22px;&quot;&gt;&lt;font style=&quot;font-size: 22px;&quot;&gt;(&#39;SEP&#39; in BERT)&lt;/font&gt;&lt;/b&gt;&lt;/div&gt;" style="text;html=1;strokeColor=none;fillColor=none;align=center;verticalAlign=middle;whiteSpace=wrap;rounded=0;fontSize=22;flipH=0;flipV=0;" vertex="1" parent="sFmeJr-89NjhY19Eg1W9-103">
          <mxGeometry x="110" y="194.43" width="204" height="33.44" as="geometry" />
        </mxCell>
        <mxCell id="sFmeJr-89NjhY19Eg1W9-106" value="E&lt;sub style=&quot;font-size: 22px;&quot;&gt;i&lt;/sub&gt;" style="shape=hexagon;perimeter=hexagonPerimeter2;whiteSpace=wrap;html=1;fixedSize=1;fontSize=22;flipH=1;flipV=1;" vertex="1" parent="sFmeJr-89NjhY19Eg1W9-103">
          <mxGeometry y="260" width="97.34" height="59.9" as="geometry" />
        </mxCell>
        <mxCell id="sFmeJr-89NjhY19Eg1W9-107" value="&lt;b style=&quot;font-size: 22px;&quot;&gt;&lt;font style=&quot;font-size: 22px;&quot;&gt;Embeddings associated with the i&lt;sup style=&quot;font-size: 22px;&quot;&gt;th&lt;/sup&gt; code of the patient &lt;/font&gt;&lt;/b&gt;" style="text;html=1;strokeColor=none;fillColor=none;align=center;verticalAlign=middle;whiteSpace=wrap;rounded=0;fontSize=22;flipV=0;flipH=0;" vertex="1" parent="sFmeJr-89NjhY19Eg1W9-103">
          <mxGeometry x="110" y="280.89" width="234" height="33.44" as="geometry" />
        </mxCell>
        <mxCell id="sFmeJr-89NjhY19Eg1W9-108" value="" style="ellipse;whiteSpace=wrap;html=1;fillColor=#9CC7FF;flipH=1;strokeColor=#006EAF;fontColor=#ffffff;flipV=1;fontSize=22;" vertex="1" parent="1">
          <mxGeometry x="1048.0112359550562" y="1184.37" width="59.48" height="59.18" as="geometry" />
        </mxCell>
        <mxCell id="sFmeJr-89NjhY19Eg1W9-109" value="&lt;b style=&quot;font-size: 22px;&quot;&gt;&lt;font style=&quot;font-size: 22px;&quot;&gt;Diagnostic code&lt;/font&gt;&lt;/b&gt;" style="text;whiteSpace=wrap;html=1;fontSize=22;flipH=0;flipV=0;" vertex="1" parent="1">
          <mxGeometry x="1138.0112359550562" y="1196.65" width="174" height="31.21" as="geometry" />
        </mxCell>
        <mxCell id="sFmeJr-89NjhY19Eg1W9-110" value="" style="whiteSpace=wrap;html=1;aspect=fixed;direction=east;flipH=1;flipV=1;strokeColor=#d6b656;fillColor=#fff2cc;fontSize=22;" vertex="1" parent="1">
          <mxGeometry x="1048.0112359550562" y="1269.6399999999999" width="53.26" height="53.26" as="geometry" />
        </mxCell>
        <mxCell id="sFmeJr-89NjhY19Eg1W9-111" value="&lt;b style=&quot;font-size: 22px;&quot;&gt;&lt;font style=&quot;font-size: 22px;&quot;&gt;&amp;nbsp; Sequence beginner (&#39;CLS&#39; in BERT)&lt;font style=&quot;font-size: 22px;&quot;&gt;&lt;br style=&quot;font-size: 22px;&quot;&gt;&lt;/font&gt;&lt;/font&gt;&lt;/b&gt;" style="text;html=1;strokeColor=none;fillColor=none;align=center;verticalAlign=middle;whiteSpace=wrap;rounded=0;fontSize=22;flipH=0;flipV=0;" vertex="1" parent="1">
          <mxGeometry x="1138.0112359550562" y="1287.67" width="220" height="33.44" as="geometry" />
        </mxCell>
        <mxCell id="sFmeJr-89NjhY19Eg1W9-112" value="" style="verticalLabelPosition=bottom;verticalAlign=top;html=1;shape=mxgraph.basic.diag_round_rect;dx=6;whiteSpace=wrap;fillColor=#f8cecc;strokeColor=#b85450;" vertex="1" parent="1">
          <mxGeometry x="3008.0112359550562" y="1668.75" width="170" height="64.25" as="geometry" />
        </mxCell>
        <mxCell id="sFmeJr-89NjhY19Eg1W9-113" value="&lt;b style=&quot;font-size: 22px;&quot;&gt;Visits that won&#39;t be given to the model&lt;br style=&quot;font-size: 22px;&quot;&gt;&lt;/b&gt;" style="text;html=1;strokeColor=none;fillColor=none;align=center;verticalAlign=middle;whiteSpace=wrap;rounded=0;fontSize=22;" vertex="1" parent="1">
          <mxGeometry x="3188.0112359550562" y="1685.88" width="240" height="30" as="geometry" />
        </mxCell>
        <mxCell id="sFmeJr-89NjhY19Eg1W9-114" value="" style="group;fillColor=#fff2cc;strokeColor=#d6b656;" vertex="1" connectable="0" parent="1">
          <mxGeometry x="73.91573033707868" y="1785.602735426009" width="71.79775280898876" height="135.06726457399103" as="geometry" />
        </mxCell>
        <mxCell id="sFmeJr-89NjhY19Eg1W9-115" value="" style="endArrow=none;html=1;rounded=0;fillColor=#d5e8d4;strokeColor=#82b366;" edge="1" parent="sFmeJr-89NjhY19Eg1W9-114">
          <mxGeometry width="50" height="50" relative="1" as="geometry">
            <mxPoint x="4.2512809751938576e-15" y="66.99336322869952" as="sourcePoint" />
            <mxPoint x="71.79775280898876" y="66.756995515695" as="targetPoint" />
          </mxGeometry>
        </mxCell>
        <mxCell id="sFmeJr-89NjhY19Eg1W9-116" value="&lt;div style=&quot;font-size: 20px;&quot;&gt;&lt;font style=&quot;font-size: 20px;&quot;&gt;&lt;b style=&quot;font-size: 20px;&quot;&gt;Segment &lt;br style=&quot;font-size: 20px;&quot;&gt;&lt;/b&gt;&lt;/font&gt;&lt;/div&gt;&lt;div style=&quot;font-size: 20px;&quot;&gt;&lt;font style=&quot;font-size: 20px;&quot;&gt;&lt;b style=&quot;font-size: 20px;&quot;&gt;Embedding&lt;br style=&quot;font-size: 20px;&quot;&gt;&lt;/b&gt;&lt;/font&gt;&lt;/div&gt;" style="text;html=1;align=center;verticalAlign=middle;resizable=0;points=[];autosize=1;strokeColor=none;fillColor=none;fontSize=20;" vertex="1" parent="1">
          <mxGeometry x="40" y="1715.8830044843048" width="130" height="60" as="geometry" />
        </mxCell>
        <mxCell id="sFmeJr-89NjhY19Eg1W9-117" value="" style="endArrow=none;html=1;rounded=0;strokeWidth=2;" edge="1" parent="1">
          <mxGeometry width="50" height="50" relative="1" as="geometry">
            <mxPoint x="184.01123595505624" y="1864" as="sourcePoint" />
            <mxPoint x="184.04022471910116" y="1841.0007623318384" as="targetPoint" />
          </mxGeometry>
        </mxCell>
        <mxCell id="sFmeJr-89NjhY19Eg1W9-118" value="" style="endArrow=none;html=1;rounded=0;strokeWidth=2;" edge="1" parent="1">
          <mxGeometry width="50" height="50" relative="1" as="geometry">
            <mxPoint x="196.00651685393245" y="1852.6052914798206" as="sourcePoint" />
            <mxPoint x="172.07393258426964" y="1852.6052914798206" as="targetPoint" />
          </mxGeometry>
        </mxCell>
        <mxCell id="sFmeJr-89NjhY19Eg1W9-119" value="" style="group;fillColor=#f8cecc;strokeColor=#b85450;" vertex="1" connectable="0" parent="1">
          <mxGeometry x="-80.86426966292129" y="1785.432735426009" width="71.79775280898876" height="135.06726457399103" as="geometry" />
        </mxCell>
        <mxCell id="sFmeJr-89NjhY19Eg1W9-120" value="" style="endArrow=none;html=1;rounded=0;fillColor=#ffe6cc;strokeColor=#d79b00;" edge="1" parent="sFmeJr-89NjhY19Eg1W9-119">
          <mxGeometry width="50" height="50" relative="1" as="geometry">
            <mxPoint x="4.2512809751938576e-15" y="66.99336322869952" as="sourcePoint" />
            <mxPoint x="71.79775280898876" y="66.756995515695" as="targetPoint" />
          </mxGeometry>
        </mxCell>
        <mxCell id="sFmeJr-89NjhY19Eg1W9-121" value="" style="endArrow=none;html=1;rounded=0;strokeWidth=2;" edge="1" parent="1">
          <mxGeometry width="50" height="50" relative="1" as="geometry">
            <mxPoint x="28.02898876404481" y="1864.2219730941702" as="sourcePoint" />
            <mxPoint x="28.02898876404481" y="1841.7107623318384" as="targetPoint" />
          </mxGeometry>
        </mxCell>
        <mxCell id="sFmeJr-89NjhY19Eg1W9-122" value="" style="endArrow=none;html=1;rounded=0;strokeWidth=2;" edge="1" parent="1">
          <mxGeometry width="50" height="50" relative="1" as="geometry">
            <mxPoint x="39.99528089887633" y="1853.3152914798204" as="sourcePoint" />
            <mxPoint x="16.062696629213406" y="1853.3152914798204" as="targetPoint" />
          </mxGeometry>
        </mxCell>
        <mxCell id="sFmeJr-89NjhY19Eg1W9-123" value="&lt;div style=&quot;font-size: 20px;&quot;&gt;&lt;font style=&quot;font-size: 20px;&quot;&gt;&lt;b style=&quot;font-size: 20px;&quot;&gt;Emergency&lt;/b&gt;&lt;/font&gt;&lt;/div&gt;&lt;div style=&quot;font-size: 20px;&quot;&gt;&lt;font style=&quot;font-size: 20px;&quot;&gt;&lt;b style=&quot;font-size: 20px;&quot;&gt;Embedding&lt;br style=&quot;font-size: 20px;&quot;&gt;&lt;/b&gt;&lt;/font&gt;&lt;/div&gt;" style="text;html=1;align=center;verticalAlign=middle;resizable=0;points=[];autosize=1;strokeColor=none;fillColor=none;fontSize=20;" vertex="1" parent="1">
          <mxGeometry x="-114.77999999999997" y="1715.7130044843047" width="130" height="60" as="geometry" />
        </mxCell>
        <mxCell id="sFmeJr-89NjhY19Eg1W9-124" value="&lt;b&gt;&lt;font style=&quot;font-size: 20px;&quot;&gt;[0, 1, 0, 0]&lt;/font&gt;&lt;/b&gt;" style="shape=cube;whiteSpace=wrap;html=1;boundedLbl=1;backgroundOutline=1;darkOpacity=0.05;darkOpacity2=0.1;size=10;" vertex="1" parent="1">
          <mxGeometry x="2280" y="2010" width="120" height="80" as="geometry" />
        </mxCell>
        <mxCell id="sFmeJr-89NjhY19Eg1W9-76" value="&lt;font size=&quot;1&quot;&gt;&lt;b style=&quot;font-size: 18px;&quot;&gt;Label&lt;/b&gt;&lt;/font&gt;" style="text;html=1;strokeColor=#6c8ebf;fillColor=#dae8fc;align=center;verticalAlign=middle;whiteSpace=wrap;rounded=0;" vertex="1" parent="1">
          <mxGeometry x="2315.0112359550562" y="1999" width="60" height="30" as="geometry" />
        </mxCell>
        <mxCell id="sFmeJr-89NjhY19Eg1W9-125" value="" style="endArrow=none;dashed=1;html=1;rounded=0;" edge="1" parent="1">
          <mxGeometry width="50" height="50" relative="1" as="geometry">
            <mxPoint x="1293.01" y="1861" as="sourcePoint" />
            <mxPoint x="1293.01" y="2031" as="targetPoint" />
          </mxGeometry>
        </mxCell>
        <mxCell id="sFmeJr-89NjhY19Eg1W9-127" value="&lt;div&gt;[1, 0, 0, 0] : the patient is going to be hospitalized passing by the emergency department in less than a month&lt;br&gt;&lt;/div&gt;&lt;div&gt;&lt;div&gt;[0, 1, 0, 0] : between 1 and 6 months&lt;br&gt;&lt;/div&gt;&lt;div&gt;[0, 0, 1, 0] : the patient is alive but will not be hospitalized urgently in less than 6 months&lt;br&gt;&lt;/div&gt;[0, 0, 0, 1] : the patient is deceased since its last visit&lt;br&gt;&lt;/div&gt; " style="text;html=1;strokeColor=none;fillColor=none;align=center;verticalAlign=middle;whiteSpace=wrap;rounded=0;" vertex="1" parent="1">
          <mxGeometry x="2990" y="1460" width="210" height="30" as="geometry" />
        </mxCell>
      </root>
    </mxGraphModel>
  </diagram>
</mxfile>
